<svg width="26" height="26" viewBox="0 0 26 26" fill="none" xmlns="http://www.w3.org/2000/svg">
<g id="heroicons-solid:menu-alt-3">
<path id="Vector" fill-rule="evenodd" clip-rule="evenodd" d="M3.8999 6.5C3.8999 6.15522 4.03687 5.82456 4.28066 5.58076C4.52446 5.33696 4.85512 5.2 5.1999 5.2H20.7999C21.1447 5.2 21.4753 5.33696 21.7191 5.58076C21.9629 5.82456 22.0999 6.15522 22.0999 6.5C22.0999 6.84478 21.9629 7.17544 21.7191 7.41924C21.4753 7.66303 21.1447 7.8 20.7999 7.8H5.1999C4.85512 7.8 4.52446 7.66303 4.28066 7.41924C4.03687 7.17544 3.8999 6.84478 3.8999 6.5ZM3.8999 13C3.8999 12.6552 4.03687 12.3246 4.28066 12.0808C4.52446 11.837 4.85512 11.7 5.1999 11.7H20.7999C21.1447 11.7 21.4753 11.837 21.7191 12.0808C21.9629 12.3246 22.0999 12.6552 22.0999 13C22.0999 13.3448 21.9629 13.6754 21.7191 13.9192C21.4753 14.163 21.1447 14.3 20.7999 14.3H5.1999C4.85512 14.3 4.52446 14.163 4.28066 13.9192C4.03687 13.6754 3.8999 13.3448 3.8999 13ZM11.6999 19.5C11.6999 19.1552 11.8369 18.8246 12.0807 18.5808C12.3245 18.337 12.6551 18.2 12.9999 18.2H20.7999C21.1447 18.2 21.4753 18.337 21.7191 18.5808C21.9629 18.8246 22.0999 19.1552 22.0999 19.5C22.0999 19.8448 21.9629 20.1754 21.7191 20.4192C21.4753 20.663 21.1447 20.8 20.7999 20.8H12.9999C12.6551 20.8 12.3245 20.663 12.0807 20.4192C11.8369 20.1754 11.6999 19.8448 11.6999 19.5Z" fill="#262626"/>
</g>
</svg>
