<svg width="40" height="40" viewBox="0 0 40 40" fill="none" xmlns="http://www.w3.org/2000/svg">
<circle cx="20" cy="20" r="20" fill="#262626"/>
<path d="M30.5 20C30.5006 20.2546 30.4353 20.5051 30.3105 20.727C30.1856 20.949 30.0055 21.1348 29.7875 21.2665L16.28 29.5297C16.0523 29.6691 15.7914 29.7452 15.5244 29.7502C15.2575 29.7551 14.994 29.6887 14.7613 29.5578C14.5307 29.4289 14.3387 29.2409 14.2049 29.0132C14.0711 28.7855 14.0004 28.5263 14 28.2622V11.7378C14.0004 11.4737 14.0711 11.2144 14.2049 10.9867C14.3387 10.759 14.5307 10.5711 14.7613 10.4422C14.994 10.3112 15.2575 10.2448 15.5244 10.2498C15.7914 10.2547 16.0523 10.3308 16.28 10.4703L29.7875 18.7334C30.0055 18.8651 30.1856 19.051 30.3105 19.2729C30.4353 19.4949 30.5006 19.7453 30.5 20Z" fill="#E4E6EF"/>
</svg>
