<svg width="132" height="24" viewBox="0 0 132 24" fill="none" xmlns="http://www.w3.org/2000/svg">
<path d="M11.9998 17.2698L16.1498 19.7798C16.9098 20.2398 17.8398 19.5598 17.6398 18.6998L16.5398 13.9798L20.2098 10.7998C20.8798 10.2198 20.5198 9.11977 19.6398 9.04977L14.8098 8.63977L12.9198 4.17977C12.5798 3.36977 11.4198 3.36977 11.0798 4.17977L9.18983 8.62977L4.35983 9.03977C3.47983 9.10977 3.11983 10.2098 3.78983 10.7898L7.45983 13.9698L6.35983 18.6898C6.15983 19.5498 7.08983 20.2298 7.84983 19.7698L11.9998 17.2698Z" fill="#8C33FD"/>
<path d="M38.9998 17.2698L43.1498 19.7798C43.9098 20.2398 44.8398 19.5598 44.6398 18.6998L43.5398 13.9798L47.2098 10.7998C47.8798 10.2198 47.5198 9.11977 46.6398 9.04977L41.8098 8.63977L39.9198 4.17977C39.5798 3.36977 38.4198 3.36977 38.0798 4.17977L36.1898 8.62977L31.3598 9.03977C30.4798 9.10977 30.1198 10.2098 30.7898 10.7898L34.4598 13.9698L33.3598 18.6898C33.1598 19.5498 34.0898 20.2298 34.8498 19.7698L38.9998 17.2698Z" fill="#8C33FD"/>
<path d="M65.9998 17.2698L70.1498 19.7798C70.9098 20.2398 71.8398 19.5598 71.6398 18.6998L70.5398 13.9798L74.2098 10.7998C74.8798 10.2198 74.5198 9.11977 73.6398 9.04977L68.8098 8.63977L66.9198 4.17977C66.5798 3.36977 65.4198 3.36977 65.0798 4.17977L63.1898 8.62977L58.3598 9.03977C57.4798 9.10977 57.1198 10.2098 57.7898 10.7898L61.4598 13.9698L60.3598 18.6898C60.1598 19.5498 61.0898 20.2298 61.8498 19.7698L65.9998 17.2698Z" fill="#8C33FD"/>
<path d="M92.9998 17.2698L97.1498 19.7798C97.9098 20.2398 98.8398 19.5598 98.6398 18.6998L97.5398 13.9798L101.21 10.7998C101.88 10.2198 101.52 9.11977 100.64 9.04977L95.8098 8.63977L93.9198 4.17977C93.5798 3.36977 92.4198 3.36977 92.0798 4.17977L90.1898 8.62977L85.3598 9.03977C84.4798 9.10977 84.1198 10.2098 84.7898 10.7898L88.4598 13.9698L87.3598 18.6898C87.1598 19.5498 88.0898 20.2298 88.8498 19.7698L92.9998 17.2698Z" fill="#8C33FD"/>
<path d="M120 17.2698L124.15 19.7798C124.91 20.2398 125.84 19.5598 125.64 18.6998L124.54 13.9798L128.21 10.7998C128.88 10.2198 128.52 9.11977 127.64 9.04977L122.81 8.63977L120.92 4.17977C120.58 3.36977 119.42 3.36977 119.08 4.17977L117.19 8.62977L112.36 9.03977C111.48 9.10977 111.12 10.2098 111.79 10.7898L115.46 13.9698L114.36 18.6898C114.16 19.5498 115.09 20.2298 115.85 19.7698L120 17.2698Z" fill="#8C33FD"/>
</svg>
