<svg width="9" height="17" viewBox="0 0 9 17" fill="none" xmlns="http://www.w3.org/2000/svg">
<g clip-path="url(#clip0_505_186)">
<path d="M5 3.71875L5 13.2812C5 13.5787 4.78 13.8125 4.5 13.8125C4.22 13.8125 4 13.5787 4 13.2812L4 3.71875C4 3.42125 4.22 3.1875 4.5 3.1875C4.78 3.1875 5 3.42125 5 3.71875Z" fill="#262626"/>
<path d="M8.49998 6.375C8.50078 6.44467 8.48785 6.51375 8.46201 6.5778C8.43618 6.64185 8.39802 6.69944 8.34998 6.74687C8.14998 6.95937 7.83998 6.95937 7.63998 6.74687L4.48998 3.4L1.33998 6.74687C1.13998 6.95937 0.82998 6.95937 0.62998 6.74687C0.42998 6.53437 0.42998 6.205 0.62998 5.9925L4.12998 2.27375C4.32998 2.06125 4.63998 2.06125 4.83998 2.27375L8.33998 5.9925C8.43998 6.09875 8.48998 6.23687 8.48998 6.36437L8.49998 6.375Z" fill="#262626"/>
</g>
<defs>
<clipPath id="clip0_505_186">
<rect width="17" height="9" fill="white" transform="matrix(0 -1 1 0 0 17)"/>
</clipPath>
</defs>
</svg>
