<svg width="26" height="26" viewBox="0 0 26 26" fill="none" xmlns="http://www.w3.org/2000/svg">
<g id="ph:waveform-light">
<path id="Vector" d="M5.48438 9.75V16.25C5.48438 16.4116 5.42017 16.5666 5.30589 16.6809C5.19161 16.7952 5.03662 16.8594 4.875 16.8594C4.71338 16.8594 4.55839 16.7952 4.44411 16.6809C4.32983 16.5666 4.26563 16.4116 4.26562 16.25V9.75C4.26562 9.58838 4.32983 9.43339 4.44411 9.31911C4.55839 9.20483 4.71338 9.14062 4.875 9.14062C5.03662 9.14062 5.19161 9.20483 5.30589 9.31911C5.42017 9.43339 5.48438 9.58838 5.48438 9.75ZM8.9375 2.64062C8.77588 2.64062 8.62089 2.70483 8.50661 2.81911C8.39233 2.93339 8.32812 3.08838 8.32812 3.25V22.75C8.32812 22.9116 8.39233 23.0666 8.50661 23.1809C8.62089 23.2952 8.77588 23.3594 8.9375 23.3594C9.09912 23.3594 9.25411 23.2952 9.36839 23.1809C9.48267 23.0666 9.54688 22.9116 9.54688 22.75V3.25C9.54688 3.08838 9.48267 2.93339 9.36839 2.81911C9.25411 2.70483 9.09912 2.64062 8.9375 2.64062ZM13 5.89062C12.8384 5.89062 12.6834 5.95483 12.5691 6.06911C12.4548 6.18339 12.3906 6.33838 12.3906 6.5V19.5C12.3906 19.6616 12.4548 19.8166 12.5691 19.9309C12.6834 20.0452 12.8384 20.1094 13 20.1094C13.1616 20.1094 13.3166 20.0452 13.4309 19.9309C13.5452 19.8166 13.6094 19.6616 13.6094 19.5V6.5C13.6094 6.33838 13.5452 6.18339 13.4309 6.06911C13.3166 5.95483 13.1616 5.89062 13 5.89062ZM17.0625 9.14062C16.9009 9.14062 16.7459 9.20483 16.6316 9.31911C16.5173 9.43339 16.4531 9.58838 16.4531 9.75V16.25C16.4531 16.4116 16.5173 16.5666 16.6316 16.6809C16.7459 16.7952 16.9009 16.8594 17.0625 16.8594C17.2241 16.8594 17.3791 16.7952 17.4934 16.6809C17.6077 16.5666 17.6719 16.4116 17.6719 16.25V9.75C17.6719 9.58838 17.6077 9.43339 17.4934 9.31911C17.3791 9.20483 17.2241 9.14062 17.0625 9.14062ZM21.125 7.51562C20.9634 7.51562 20.8084 7.57983 20.6941 7.69411C20.5798 7.80839 20.5156 7.96338 20.5156 8.125V17.875C20.5156 18.0366 20.5798 18.1916 20.6941 18.3059C20.8084 18.4202 20.9634 18.4844 21.125 18.4844C21.2866 18.4844 21.4416 18.4202 21.5559 18.3059C21.6702 18.1916 21.7344 18.0366 21.7344 17.875V8.125C21.7344 7.96338 21.6702 7.80839 21.5559 7.69411C21.4416 7.57983 21.2866 7.51562 21.125 7.51562Z" fill="#262626"/>
</g>
</svg>
