<svg width="40" height="40" viewBox="0 0 40 40" fill="none" xmlns="http://www.w3.org/2000/svg">
<circle cx="20" cy="20" r="20" fill="#E4E6EF"/>
<path d="M22.5909 11.5687C22.6676 11.5455 22.739 11.507 22.8006 11.4557C22.8623 11.4044 22.9131 11.3412 22.9499 11.2699C22.9867 11.1987 23.0089 11.1207 23.015 11.0407C23.0212 10.9608 23.0113 10.8803 22.9859 10.8043C22.9604 10.7282 22.92 10.658 22.8669 10.5978C22.8139 10.5376 22.7493 10.4887 22.677 10.4539C22.6047 10.4191 22.5262 10.3991 22.446 10.3952C22.3659 10.3913 22.2858 10.4035 22.2105 10.4311C21.0861 10.8055 20.3841 11.7295 19.9713 12.7195C19.9158 12.8534 19.865 12.989 19.8189 13.1263C19.5941 12.7005 19.3064 12.3109 18.9657 11.9707C18.5044 11.5085 17.9535 11.1455 17.3468 10.9041C16.7401 10.6626 16.0904 10.5478 15.4377 10.5667C14.7417 10.5859 14.1861 11.1427 14.1669 11.8375C14.1479 12.4903 14.2627 13.1399 14.5042 13.7467C14.7456 14.3534 15.1086 14.9043 15.5709 15.3655L15.6081 15.4015C14.6001 15.6199 13.6891 16.1569 13.0101 16.9333C12.331 17.7096 11.9199 18.6838 11.8377 19.7119L11.8305 19.8007C11.672 21.7774 12.0932 23.7573 13.0425 25.4983L13.4745 26.2879C13.4865 26.3083 13.4985 26.3287 13.5129 26.3479L14.7129 28.0303C14.9848 28.4112 15.3365 28.7283 15.7435 28.9595C16.1504 29.1907 16.6028 29.3304 17.0693 29.369C17.5357 29.4076 18.0049 29.3441 18.4443 29.183C18.8837 29.0219 19.2828 28.7669 19.6137 28.4359C19.6645 28.3851 19.7248 28.3448 19.7912 28.3173C19.8576 28.2898 19.9288 28.2756 20.0007 28.2756C20.0725 28.2756 20.1437 28.2898 20.2101 28.3173C20.2765 28.3448 20.3368 28.3851 20.3877 28.4359C20.7186 28.7669 21.1176 29.0219 21.557 29.183C21.9964 29.3441 22.4656 29.4076 22.9321 29.369C23.3985 29.3304 23.8509 29.1907 24.2579 28.9595C24.6648 28.7283 25.0165 28.4112 25.2885 28.0303L26.4885 26.3491C26.5025 26.3295 26.5153 26.3091 26.5269 26.2879L26.9577 25.4983C27.9069 23.7573 28.3281 21.7774 28.1697 19.8007L28.1637 19.7119C28.1106 19.0493 27.9204 18.4049 27.6052 17.8196C27.29 17.2342 26.8566 16.7208 26.3326 16.3117C25.8086 15.9027 25.2053 15.6069 24.561 15.4432C23.9167 15.2795 23.2454 15.2514 22.5897 15.3607L20.6013 15.6919C20.6133 14.8747 20.7573 13.9555 21.0801 13.1803C21.4161 12.3703 21.9153 11.7943 22.5897 11.5687M16.2897 18.7687C16.1054 18.827 15.9346 18.9211 15.7869 19.0457C15.6392 19.1703 15.5177 19.3229 15.4293 19.4947C15.2073 19.9123 15.0549 20.6011 15.1953 21.7255C15.211 21.8814 15.1652 22.0373 15.0675 22.1598C14.9699 22.2823 14.8282 22.3618 14.6727 22.3812C14.5173 22.4006 14.3604 22.3585 14.2356 22.2638C14.1108 22.1691 14.028 22.0293 14.0049 21.8743C13.8453 20.5975 13.9929 19.6363 14.3709 18.9295C14.7549 18.2095 15.3393 17.8207 15.9105 17.6299C16.0615 17.5797 16.2263 17.5914 16.3686 17.6626C16.511 17.7339 16.6192 17.8587 16.6695 18.0097C16.7197 18.1608 16.708 18.3256 16.6368 18.4679C16.5655 18.6102 16.4407 18.7185 16.2897 18.7687Z" fill="#262626"/>
</svg>
