<svg width="40" height="40" viewBox="0 0 40 40" fill="none" xmlns="http://www.w3.org/2000/svg">
<circle cx="20" cy="20" r="20" fill="#E4E6EF"/>
<path fill-rule="evenodd" clip-rule="evenodd" d="M19.75 14.406C18.27 14.406 18.122 14.563 17.356 14.563C16.718 14.563 14.802 13 13.845 13C12.887 13 11.77 13.563 11.77 15.188V17.063C11.772 17.555 11.95 19.063 12.65 18.66C11.823 19.638 11.74 20.779 11.751 21.883C11.528 21.947 11.301 22.02 11.08 22.095C10.396 22.329 9.67004 22.627 9.34304 22.839C9.17595 22.9469 9.05859 23.1168 9.01677 23.3113C8.97495 23.5058 9.01209 23.7089 9.12004 23.876C9.22798 24.0431 9.39788 24.1604 9.59235 24.2023C9.78683 24.2441 9.98995 24.2069 10.157 24.099C10.313 23.998 10.878 23.749 11.565 23.514L11.793 23.439C11.839 23.872 11.954 24.269 12.125 24.629L12.101 24.642C11.691 24.858 11.311 25.107 11.069 25.265L10.956 25.339C10.7889 25.4469 10.6716 25.6168 10.6298 25.8113C10.5879 26.0058 10.6251 26.2089 10.733 26.376C10.841 26.5431 11.0109 26.6604 11.2054 26.7023C11.3998 26.7441 11.6029 26.7069 11.77 26.599L11.901 26.513C12.146 26.353 12.46 26.148 12.802 25.968C12.882 25.925 12.959 25.887 13.033 25.852C14.763 27.475 17.87 28 19.75 28C21.63 28 24.737 27.475 26.467 25.852C26.541 25.887 26.617 25.925 26.698 25.968C27.04 26.148 27.354 26.353 27.599 26.513L27.73 26.599C27.8971 26.7069 28.1002 26.7441 28.2947 26.7023C28.4892 26.6604 28.6591 26.5431 28.767 26.376C28.875 26.2089 28.9121 26.0058 28.8703 25.8113C28.8285 25.6168 28.7111 25.4469 28.544 25.339L28.431 25.265C28.0968 25.0415 27.7525 24.8336 27.399 24.642L27.375 24.629C27.546 24.269 27.661 23.872 27.707 23.439L27.935 23.514C28.622 23.749 29.187 23.998 29.344 24.099C29.511 24.2009 29.7113 24.2335 29.902 24.1898C30.0927 24.1462 30.2588 24.0298 30.3648 23.8654C30.4709 23.701 30.5086 23.5017 30.4697 23.3099C30.4309 23.1182 30.3187 22.9492 30.157 22.839C29.83 22.627 29.104 22.329 28.421 22.095C28.1986 22.0192 27.9745 21.9482 27.749 21.882C27.761 20.778 27.677 19.638 26.849 18.66C27.549 19.063 27.729 17.555 27.73 17.062V15.188C27.73 13.563 26.613 13 25.655 13C24.698 13 22.782 14.563 22.145 14.563C21.378 14.563 21.23 14.406 19.75 14.406ZM19.075 23.6C19.277 23.531 19.516 23.5 19.75 23.5C19.984 23.5 20.223 23.531 20.426 23.6C20.526 23.634 20.646 23.688 20.754 23.774C20.8281 23.8298 20.8886 23.9016 20.9312 23.984C20.9738 24.0664 20.9973 24.1573 21 24.25C21 24.48 20.861 24.64 20.754 24.726C20.647 24.812 20.525 24.866 20.426 24.9C20.2075 24.9692 19.9793 25.0029 19.75 25C19.5211 25.003 19.2932 24.9692 19.075 24.9C18.9561 24.8615 18.8448 24.8026 18.746 24.726C18.672 24.6702 18.6114 24.5984 18.5689 24.516C18.5263 24.4336 18.5028 24.3427 18.5 24.25C18.5 24.02 18.639 23.86 18.746 23.774C18.853 23.688 18.976 23.634 19.075 23.6ZM21.92 20.5C22.057 20.272 22.326 20 22.73 20C23.134 20 23.404 20.272 23.54 20.5C23.682 20.739 23.75 21.027 23.75 21.313C23.75 21.598 23.682 21.886 23.54 22.124C23.404 22.353 23.134 22.625 22.73 22.625C22.326 22.625 22.057 22.353 21.92 22.125C21.7789 21.8779 21.7064 21.5975 21.71 21.313C21.71 21.027 21.778 20.739 21.92 20.501M15.96 20.501C16.097 20.273 16.366 20.001 16.77 20.001C17.174 20.001 17.444 20.273 17.58 20.501C17.722 20.74 17.79 21.028 17.79 21.314C17.79 21.599 17.722 21.887 17.58 22.125C17.444 22.354 17.174 22.626 16.77 22.626C16.366 22.626 16.097 22.354 15.96 22.126C15.8189 21.8789 15.7464 21.5985 15.75 21.314C15.75 21.028 15.818 20.739 15.96 20.501Z" fill="#262626"/>
</svg>
