<svg width="6" height="238" viewBox="0 0 6 238" fill="none" xmlns="http://www.w3.org/2000/svg">
<path d="M3 237.667C4.47276 237.667 5.66667 236.473 5.66667 235C5.66667 233.527 4.47276 232.333 3 232.333C1.52724 232.333 0.333333 233.527 0.333333 235C0.333333 236.473 1.52724 237.667 3 237.667ZM3 5.66667C4.47276 5.66667 5.66667 4.47276 5.66667 3C5.66667 1.52724 4.47276 0.333335 3 0.333335C1.52724 0.333335 0.333333 1.52724 0.333333 3C0.333333 4.47276 1.52724 5.66667 3 5.66667ZM3.5 235L3.5 3H2.5L2.5 235H3.5Z" fill="#F0F1FA"/>
</svg>
