<svg width="6" height="267" viewBox="0 0 6 267" fill="none" xmlns="http://www.w3.org/2000/svg">
<path d="M3 266.667C4.47276 266.667 5.66667 265.473 5.66667 264C5.66667 262.527 4.47276 261.333 3 261.333C1.52724 261.333 0.333333 262.527 0.333333 264C0.333333 265.473 1.52724 266.667 3 266.667ZM3 5.66666C4.47276 5.66666 5.66667 4.47275 5.66667 3C5.66667 1.52725 4.47276 0.333344 3 0.333344C1.52724 0.333344 0.333333 1.52725 0.333333 3C0.333333 4.47275 1.52724 5.66666 3 5.66666ZM3.5 264L3.5 3H2.5L2.5 264H3.5Z" fill="#262626"/>
</svg>
