<svg width="24" height="24" viewBox="0 0 24 24" fill="none" xmlns="http://www.w3.org/2000/svg">
<path d="M6 22C5.45 22 4.97933 21.8043 4.588 21.413C4.19667 21.0217 4.00067 20.5507 4 20V10C4 9.45 4.196 8.97933 4.588 8.588C4.98 8.19667 5.45067 8.00067 6 8H7V6C7 4.61667 7.48767 3.43767 8.463 2.463C9.43833 1.48833 10.6173 1.00067 12 1C13.3833 1 14.5627 1.48767 15.538 2.463C16.5133 3.43833 17.0007 4.61733 17 6V8H18C18.55 8 19.021 8.196 19.413 8.588C19.805 8.98 20.0007 9.45067 20 10V20C20 20.55 19.8043 21.021 19.413 21.413C19.0217 21.805 18.5507 22.0007 18 22H6ZM12 17C12.55 17 13.021 16.8043 13.413 16.413C13.805 16.0217 14.0007 15.5507 14 15C14 14.45 13.8043 13.9793 13.413 13.588C13.0217 13.1967 12.5507 13.0007 12 13C11.45 13 10.9793 13.196 10.588 13.588C10.1967 13.98 10.0007 14.4507 10 15C10 15.55 10.196 16.021 10.588 16.413C10.98 16.805 11.4507 17.0007 12 17ZM9 8H15V6C15 5.16667 14.7083 4.45833 14.125 3.875C13.5417 3.29167 12.8333 3 12 3C11.1667 3 10.4583 3.29167 9.875 3.875C9.29167 4.45833 9 5.16667 9 6V8Z" fill="#262626"/>
</svg>
