<svg width="576" height="91" viewBox="0 0 576 91" fill="none" xmlns="http://www.w3.org/2000/svg">
<path d="M24.6736 20.84C28.8336 20.84 32.5136 21.448 35.7136 22.664C38.9776 23.88 42.0496 25.704 44.9296 28.136L37.4416 37.064C35.4576 35.528 33.5056 34.376 31.5856 33.608C29.6656 32.84 27.6176 32.456 25.4416 32.456C20.9616 32.456 17.4096 34.344 14.7856 38.12C12.2256 41.896 10.9456 47.72 10.9456 55.592C10.9456 63.336 12.2256 69.096 14.7856 72.872C17.4096 76.584 21.0256 78.44 25.6336 78.44C28.0656 78.44 30.2736 77.992 32.2576 77.096C34.2416 76.136 36.3856 74.792 38.6896 73.064L45.6976 82.088C43.2016 84.584 40.1616 86.632 36.5776 88.232C33.0576 89.832 29.1536 90.632 24.8656 90.632C18.7216 90.632 13.3776 89.288 8.83363 86.6C4.28963 83.912 0.737625 79.944 -1.82237 74.696C-4.31837 69.384 -5.56638 63.016 -5.56638 55.592C-5.56638 48.36 -4.28637 42.12 -1.72637 36.872C0.897626 31.624 4.48163 27.656 9.02563 24.968C13.6336 22.216 18.8496 20.84 24.6736 20.84ZM84.9046 69.128C82.9846 74.312 80.7766 78.376 78.2806 81.32C75.8486 84.264 72.9046 86.44 69.4486 87.848C66.0566 89.256 61.7686 90.184 56.5846 90.632L54.4726 80.072C58.6966 79.56 61.9286 78.696 64.1686 77.48C66.4086 76.2 68.2966 74.184 69.8326 71.432H64.8406L44.4886 22.472H60.6166L74.5366 62.504L86.7286 22.472H102.665L84.9046 69.128ZM158.551 22.472V89H142.807V34.568H123.031V89H107.287V22.472H158.551ZM211.837 22.472L210.205 33.704H186.781V49.64H207.229V60.68H186.781V77.672H211.837V89H171.037V22.472H211.837ZM243.072 22.472C251.84 22.472 258.656 24.296 263.52 27.944C268.384 31.592 270.816 37 270.816 44.168C270.816 51.656 268.416 57.32 263.616 61.16C258.88 64.936 252.512 66.824 244.512 66.824H237.312V89H221.568V22.472H243.072ZM243.168 55.496C246.88 55.496 249.696 54.632 251.616 52.904C253.6 51.112 254.592 48.2 254.592 44.168C254.592 37.192 250.688 33.704 242.88 33.704H237.312V55.496H243.168ZM344.536 22.472L342.808 34.856H317.656V89H301.912V22.472H344.536ZM391.649 22.472L390.017 33.704H366.593V49.64H387.041V60.68H366.593V77.672H391.649V89H350.849V22.472H391.649ZM422.885 22.472C431.653 22.472 438.469 24.296 443.333 27.944C448.197 31.592 450.629 37 450.629 44.168C450.629 51.656 448.229 57.32 443.429 61.16C438.693 64.936 432.325 66.824 424.325 66.824H417.125V89H401.381V22.472H422.885ZM422.981 55.496C426.693 55.496 429.509 54.632 431.429 52.904C433.413 51.112 434.405 48.2 434.405 44.168C434.405 37.192 430.501 33.704 422.693 33.704H417.125V55.496H422.981ZM485.823 20.84C495.295 20.84 502.655 23.88 507.903 29.96C513.215 36.04 515.871 44.616 515.871 55.688C515.871 62.92 514.655 69.16 512.223 74.408C509.855 79.656 506.399 83.688 501.855 86.504C497.375 89.256 492.031 90.632 485.823 90.632C479.615 90.632 474.271 89.256 469.791 86.504C465.311 83.752 461.855 79.784 459.423 74.6C457.055 69.352 455.871 63.048 455.871 55.688C455.871 48.52 457.055 42.312 459.423 37.064C461.855 31.816 465.311 27.816 469.791 25.064C474.271 22.248 479.615 20.84 485.823 20.84ZM485.823 32.36C481.279 32.36 477.887 34.216 475.647 37.928C473.471 41.576 472.383 47.496 472.383 55.688C472.383 63.88 473.503 69.832 475.743 73.544C477.983 77.256 481.343 79.112 485.823 79.112C490.431 79.112 493.823 77.288 495.999 73.64C498.239 69.928 499.359 63.944 499.359 55.688C499.359 47.432 498.239 41.48 495.999 37.832C493.759 34.184 490.367 32.36 485.823 32.36ZM576.582 89H561.126V64.136C561.126 54.984 561.862 46.248 563.334 37.928L544.23 89H525.318V22.472H540.774V47.816C540.774 53.128 540.582 57.544 540.198 61.064C539.814 64.584 539.238 68.68 538.47 73.352L557.958 22.472H576.582V89ZM550.854 17C545.926 17 542.022 15.656 539.142 12.968C536.326 10.28 534.726 6.696 534.342 2.216L542.694 0.679998C543.27 2.72799 544.198 4.2 545.478 5.096C546.822 5.992 548.614 6.44 550.854 6.44C553.094 6.44 554.854 5.992 556.134 5.096C557.478 4.2 558.47 2.72799 559.11 0.679998L567.462 2.216C567.078 6.696 565.446 10.28 562.566 12.968C559.686 15.656 555.782 17 550.854 17Z" fill="#313131"/>
</svg>
