<svg width="575" height="85" viewBox="0 0 575 85" fill="none" xmlns="http://www.w3.org/2000/svg">
<path d="M51.504 2.472V69H35.76V14.568H15.984V69H0.24V2.472H51.504ZM90.87 0.839996C100.342 0.839996 107.702 3.88 112.95 9.96C118.262 16.04 120.918 24.616 120.918 35.688C120.918 42.92 119.702 49.16 117.27 54.408C114.902 59.656 111.446 63.688 106.902 66.504C102.422 69.256 97.078 70.632 90.87 70.632C84.662 70.632 79.318 69.256 74.838 66.504C70.358 63.752 66.902 59.784 64.47 54.6C62.102 49.352 60.918 43.048 60.918 35.688C60.918 28.52 62.102 22.312 64.47 17.064C66.902 11.816 70.358 7.816 74.838 5.064C79.318 2.248 84.662 0.839996 90.87 0.839996ZM90.87 12.36C86.326 12.36 82.934 14.216 80.694 17.928C78.518 21.576 77.43 27.496 77.43 35.688C77.43 43.88 78.55 49.832 80.79 53.544C83.03 57.256 86.39 59.112 90.87 59.112C95.478 59.112 98.87 57.288 101.046 53.64C103.286 49.928 104.406 43.944 104.406 35.688C104.406 27.432 103.286 21.48 101.046 17.832C98.806 14.184 95.414 12.36 90.87 12.36ZM153.213 26.184C161.661 26.184 168.157 27.944 172.701 31.464C177.309 34.984 179.613 40.168 179.613 47.016C179.613 54.248 177.245 59.72 172.509 63.432C167.773 67.144 161.437 69 153.501 69H130.365V2.472H171.837L170.205 14.376H146.109V26.184H153.213ZM152.157 57.576C159.517 57.576 163.197 54.12 163.197 47.208C163.197 40.488 159.421 37.128 151.869 37.128H146.109V57.576H152.157ZM228.353 2.472L226.721 13.704H203.297V29.64H223.745V40.68H203.297V57.672H228.353V69H187.553V2.472H228.353ZM291.826 57V84.936H280.882L279.154 69H244.018L242.29 84.936H231.346V57H236.242C237.586 55.464 238.674 53.512 239.506 51.144C240.402 48.712 241.202 45.416 241.906 41.256C242.674 37.096 243.57 31.144 244.594 23.4L247.186 2.472H285.97V57H291.826ZM270.706 14.088H260.434L259.666 22.056C258.898 29.48 258.034 35.4 257.074 39.816C256.178 44.232 255.058 47.784 253.714 50.472C252.434 53.096 250.738 55.272 248.626 57H270.706V14.088ZM350.567 69H335.111V44.136C335.111 34.984 335.847 26.248 337.319 17.928L318.215 69H299.303V2.472H314.759V27.816C314.759 33.128 314.567 37.544 314.183 41.064C313.799 44.584 313.223 48.68 312.455 53.352L331.943 2.472H350.567V69ZM408.463 2.472L406.927 14.568H390.511V69H374.767V14.568H357.583V2.472H408.463ZM455.603 2.472L453.971 13.704H430.547V29.64H450.995V40.68H430.547V57.672H455.603V69H414.803V2.472H455.603ZM515.83 2.472V69H500.086V14.376H486.262L483.766 36.936C482.87 44.552 481.718 50.568 480.31 54.984C478.966 59.4 476.95 62.856 474.262 65.352C471.574 67.848 467.83 69.608 463.03 70.632L459.286 59.592C461.59 58.696 463.318 57.448 464.47 55.848C465.622 54.248 466.486 52.104 467.062 49.416C467.638 46.664 468.278 42.248 468.982 36.168L473.014 2.472H515.83ZM551.088 25.128C559.536 25.128 566.032 26.92 570.576 30.504C575.184 34.024 577.488 39.336 577.488 46.44C577.488 53.928 575.12 59.56 570.384 63.336C565.648 67.112 559.312 69 551.376 69H528.24V2.472H543.984V25.128H551.088ZM550.032 57.576C553.616 57.576 556.336 56.712 558.192 54.984C560.112 53.192 561.072 50.408 561.072 46.632C561.072 43.048 560.144 40.392 558.288 38.664C556.432 36.936 553.584 36.072 549.744 36.072H543.984V57.576H550.032Z" fill="#313131"/>
</svg>
