<svg width="565" height="71" viewBox="0 0 565 71" fill="none" xmlns="http://www.w3.org/2000/svg">
<path d="M36.1328 33.768C40.5488 34.6 44.1328 36.232 46.8848 38.664C49.7008 41.096 51.1088 44.744 51.1088 49.608C51.1088 56.712 48.5488 61.736 43.4288 64.68C38.3728 67.56 31.2688 69 22.1168 69H0.70875V2.472H19.5248C28.8688 2.472 36.0048 3.816 40.9328 6.504C45.8608 9.128 48.3248 13.448 48.3248 19.464C48.3248 23.368 47.1408 26.536 44.7728 28.968C42.4688 31.336 39.5888 32.936 36.1328 33.768ZM16.4528 13.608V29.064H22.3088C28.9648 29.064 32.2928 26.376 32.2928 21C32.2928 18.312 31.3968 16.424 29.6048 15.336C27.8128 14.184 24.9648 13.608 21.0608 13.608H16.4528ZM22.2128 57.576C26.3728 57.576 29.5088 56.968 31.6208 55.752C33.7968 54.472 34.8848 52.136 34.8848 48.744C34.8848 42.6 31.0448 39.528 23.3648 39.528H16.4528V57.576H22.2128ZM86.8388 0.839996C96.3108 0.839996 103.671 3.88 108.919 9.96C114.231 16.04 116.887 24.616 116.887 35.688C116.887 42.92 115.671 49.16 113.239 54.408C110.871 59.656 107.415 63.688 102.871 66.504C98.3908 69.256 93.0468 70.632 86.8388 70.632C80.6308 70.632 75.2868 69.256 70.8068 66.504C66.3268 63.752 62.8708 59.784 60.4388 54.6C58.0707 49.352 56.8867 43.048 56.8867 35.688C56.8867 28.52 58.0707 22.312 60.4388 17.064C62.8708 11.816 66.3268 7.816 70.8068 5.064C75.2868 2.248 80.6308 0.839996 86.8388 0.839996ZM86.8388 12.36C82.2948 12.36 78.9028 14.216 76.6628 17.928C74.4868 21.576 73.3988 27.496 73.3988 35.688C73.3988 43.88 74.5188 49.832 76.7588 53.544C78.9988 57.256 82.3588 59.112 86.8388 59.112C91.4468 59.112 94.8388 57.288 97.0148 53.64C99.2548 49.928 100.375 43.944 100.375 35.688C100.375 27.432 99.2548 21.48 97.0148 17.832C94.7748 14.184 91.3828 12.36 86.8388 12.36ZM174.955 2.472V69H159.211V14.376H145.387L142.891 36.936C141.995 44.552 140.843 50.568 139.435 54.984C138.091 59.4 136.075 62.856 133.387 65.352C130.699 67.848 126.955 69.608 122.155 70.632L118.411 59.592C120.715 58.696 122.443 57.448 123.595 55.848C124.747 54.248 125.611 52.104 126.187 49.416C126.763 46.664 127.403 42.248 128.107 36.168L132.139 2.472H174.955ZM262.245 2.472V69H187.365V2.472H202.725V56.712H217.413V2.472H232.101V56.712H246.789V2.472H262.245ZM315.446 2.472L313.814 13.704H290.39V29.64H310.838V40.68H290.39V57.672H315.446V69H274.646V2.472H315.446ZM348.026 26.184C356.474 26.184 362.97 27.944 367.514 31.464C372.122 34.984 374.426 40.168 374.426 47.016C374.426 54.248 372.058 59.72 367.322 63.432C362.586 67.144 356.25 69 348.314 69H325.178V2.472H366.65L365.018 14.376H340.922V26.184H348.026ZM346.97 57.576C354.33 57.576 358.01 54.12 358.01 47.208C358.01 40.488 354.234 37.128 346.682 37.128H340.922V57.576H346.97ZM418.077 69V40.488H398.109V69H382.365V2.472H398.109V28.2H418.077V2.472H433.821V69H418.077ZM497.567 69H482.111V44.136C482.111 34.984 482.847 26.248 484.319 17.928L465.215 69H446.303V2.472H461.759V27.816C461.759 33.128 461.567 37.544 461.183 41.064C460.799 44.584 460.223 48.68 459.455 53.352L478.943 2.472H497.567V69ZM562.279 2.472L545.863 32.616L564.103 69H546.919L532.615 40.104H525.703V69H509.959V2.472H525.703V28.584H532.999L546.823 2.472H562.279Z" fill="#313131"/>
</svg>
